<svg width="2000" height="1000" viewBox="0 0 2000 1000" fill="none" xmlns="http://www.w3.org/2000/svg">
<g clip-path="url(#clip0_488_86)">
<rect width="2000" height="1000" fill="white"/>
<path d="M59 837H-11H-41V1071H1129V963H697V915H631V857H553V523H293V599H209V679H131V757H59V837Z" fill="#0070CC"/>
<path d="M805.947 904L765 963H1129L1071.58 904H805.947Z" fill="#AADCFF"/>
<path fill-rule="evenodd" clip-rule="evenodd" d="M1788.17 173.401C1791.38 161.087 1802.58 152 1815.9 152C1829.23 152 1840.42 161.087 1843.64 173.401H1902.88C1916.69 173.401 1927.88 184.594 1927.88 198.401V256.642C1924.47 255.211 1920.73 254.42 1916.8 254.42C1900.97 254.42 1888.13 267.253 1888.13 283.083C1888.13 298.913 1900.97 311.745 1916.8 311.745C1920.73 311.745 1924.47 310.955 1927.88 309.524V367C1927.88 380.807 1916.69 392 1902.88 392H1843.06C1840.12 379.3 1828.74 369.834 1815.14 369.834C1801.54 369.834 1790.16 379.3 1787.22 392H1728.17C1714.36 392 1703.17 380.807 1703.17 367V311.006C1690.47 308.063 1681 296.678 1681 283.083C1681 269.488 1690.47 258.103 1703.17 255.16V198.401C1703.17 184.594 1714.36 173.401 1728.17 173.401H1788.17Z" fill="#94CFD9"/>
<rect x="1566" y="388" width="404" height="50" fill="#FF9908"/>
<rect x="1566" y="795" width="404" height="240" rx="32" fill="#FF9908"/>
<rect x="1597" y="611.372" width="401" height="56" transform="rotate(-30.8072 1597 611.372)" fill="#FF9908"/>
<rect x="1608.9" y="602" width="360.406" height="56" transform="rotate(21.9178 1608.9 602)" fill="#FF9908"/>
<circle cx="1919" cy="766" r="51" fill="#FF9908"/>
<circle cx="1919" cy="766" r="30" fill="#F6FBFF"/>
<circle cx="1625" cy="632" r="51" fill="#FF9908"/>
<circle cx="1625" cy="632" r="30" fill="#F6FBFF"/>
<circle cx="1940" cy="430" r="51" fill="#FF9908"/>
<circle cx="1940" cy="430" r="30" fill="#F6FBFF"/>
<path fill-rule="evenodd" clip-rule="evenodd" d="M1231.21 192C1235.42 175.889 1250.07 164 1267.5 164C1284.93 164 1299.58 175.889 1303.79 192H1389C1402.81 192 1414 203.193 1414 217V300.906C1409.54 299.034 1404.64 298 1399.5 298C1378.79 298 1362 314.789 1362 335.5C1362 356.211 1378.79 373 1399.5 373C1404.64 373 1409.54 371.966 1414 370.094V453C1414 466.807 1402.81 478 1389 478H1303.03C1303.67 480.731 1304 483.576 1304 486.5C1304 507.211 1287.21 524 1266.5 524C1245.79 524 1229 507.211 1229 486.5C1229 483.576 1229.33 480.731 1229.97 478H1145C1131.19 478 1120 466.807 1120 453V372.033C1122.73 372.665 1125.58 373 1128.5 373C1149.21 373 1166 356.211 1166 335.5C1166 314.789 1149.21 298 1128.5 298C1125.58 298 1122.73 298.335 1120 298.967V217C1120 203.193 1131.19 192 1145 192H1231.21Z" fill="#8FD1B3"/>
<mask id="mask0_488_86" style="mask-type:alpha" maskUnits="userSpaceOnUse" x="1120" y="164" width="294" height="360">
<path fill-rule="evenodd" clip-rule="evenodd" d="M1231.21 192C1235.42 175.889 1250.07 164 1267.5 164C1284.93 164 1299.58 175.889 1303.79 192H1389C1402.81 192 1414 203.193 1414 217V300.906C1409.54 299.034 1404.64 298 1399.5 298C1378.79 298 1362 314.789 1362 335.5C1362 356.211 1378.79 373 1399.5 373C1404.64 373 1409.54 371.966 1414 370.094V453C1414 466.807 1402.81 478 1389 478H1303.03C1303.67 480.731 1304 483.576 1304 486.5C1304 507.211 1287.21 524 1266.5 524C1245.79 524 1229 507.211 1229 486.5C1229 483.576 1229.33 480.731 1229.97 478H1145C1131.19 478 1120 466.807 1120 453V372.033C1122.73 372.665 1125.58 373 1128.5 373C1149.21 373 1166 356.211 1166 335.5C1166 314.789 1149.21 298 1128.5 298C1125.58 298 1122.73 298.335 1120 298.967V217C1120 203.193 1131.19 192 1145 192H1231.21Z" fill="#8FD1B3"/>
</mask>
<g mask="url(#mask0_488_86)">
<ellipse cx="1224.5" cy="313" rx="9.5" ry="13" fill="#F4B8A5"/>
<ellipse cx="1304.5" cy="311" rx="9.5" ry="13" fill="#F4B8A5"/>
<path d="M1242 379C1248.8 371 1247.17 352.333 1245.5 344H1283L1287 379H1242Z" fill="#F3B7A4"/>
<path d="M1162.5 486.5C1164.1 406.5 1214.17 380.167 1239 377H1287C1341.4 388.2 1358 457.667 1359.5 491L1309 494.5C1306.83 503.333 1296.2 522.7 1271 529.5C1245.8 536.3 1228.17 506.667 1222.5 491L1162.5 486.5Z" fill="#0070CC"/>
<path d="M1263.5 354.5C1227.9 353.3 1223 318 1225 300.5C1226.6 274.1 1247 265.167 1257 264C1294.6 259.2 1305.67 287.333 1306.5 302C1302.5 348.4 1276.17 356.333 1263.5 354.5Z" fill="#F7C7B8"/>
<path d="M1245.5 267C1251.83 271.333 1269 277.7 1287 268.5C1279.83 263.833 1261.5 257 1245.5 267Z" fill="#0070CC"/>
<path d="M1227 302.5C1240.6 302.9 1239 283.667 1236.5 274C1211.5 277.5 1216 307 1219 302.5C1221.4 298.9 1225.33 301 1227 302.5Z" fill="#BAA88F"/>
<path d="M1303.18 301.5C1289.58 301.9 1291.18 282.667 1293.68 273C1318.68 276.5 1314.18 306 1311.18 301.5C1308.78 297.9 1304.85 300 1303.18 301.5Z" fill="#BAA88F"/>
<path d="M1265 304C1263.17 309.667 1259.6 321.7 1260 324.5H1265" stroke="#754F40"/>
</g>
<rect x="1232" y="361" width="60" height="18" rx="9" fill="#0070CC"/>
<ellipse cx="1252" cy="308" rx="2" ry="3" fill="#754F40"/>
<ellipse cx="1276" cy="308" rx="2" ry="3" fill="#754F40"/>
<path d="M1248.5 327.5C1252.67 332.833 1264.6 340.3 1279 327.5" stroke="black"/>
<path d="M1242.5 299.5C1243.67 297.167 1247.8 292.9 1255 294.5" stroke="#BAA88F" stroke-width="2" stroke-linecap="round"/>
<path d="M1285.5 298.35C1284.33 296.017 1280.2 291.75 1273 293.35" stroke="#BAA88F" stroke-width="2" stroke-linecap="round"/>
<path fill-rule="evenodd" clip-rule="evenodd" d="M667 201.5C667 222.211 650.211 239 629.5 239C608.789 239 592 222.211 592 201.5C592 198.218 592.422 195.034 593.214 192H507C493.193 192 482 203.193 482 217V298.967C484.731 298.335 487.576 298 490.5 298C511.211 298 528 314.789 528 335.5C528 356.211 511.211 373 490.5 373C487.576 373 484.731 372.665 482 372.033V453C482 466.807 493.193 478 507 478H591.967C591.335 480.731 591 483.576 591 486.5C591 507.211 607.789 524 628.5 524C649.211 524 666 507.211 666 486.5C666 483.576 665.665 480.731 665.033 478H751C764.807 478 776 466.807 776 453V370.094C771.539 371.966 766.641 373 761.5 373C740.789 373 724 356.211 724 335.5C724 314.789 740.789 298 761.5 298C766.641 298 771.539 299.034 776 300.906V217C776 203.193 764.807 192 751 192H665.786C666.578 195.034 667 198.218 667 201.5Z" fill="#1A6E47"/>
<mask id="mask1_488_86" style="mask-type:alpha" maskUnits="userSpaceOnUse" x="482" y="192" width="294" height="332">
<path fill-rule="evenodd" clip-rule="evenodd" d="M667 201.5C667 222.211 650.211 239 629.5 239C608.789 239 592 222.211 592 201.5C592 198.218 592.422 195.034 593.214 192H507C493.193 192 482 203.193 482 217V298.967C484.731 298.335 487.576 298 490.5 298C511.211 298 528 314.789 528 335.5C528 356.211 511.211 373 490.5 373C487.576 373 484.731 372.665 482 372.033V453C482 466.807 493.193 478 507 478H591.967C591.335 480.731 591 483.576 591 486.5C591 507.211 607.789 524 628.5 524C649.211 524 666 507.211 666 486.5C666 483.576 665.665 480.731 665.033 478H751C764.807 478 776 466.807 776 453V370.094C771.539 371.966 766.641 373 761.5 373C740.789 373 724 356.211 724 335.5C724 314.789 740.789 298 761.5 298C766.641 298 771.539 299.034 776 300.906V217C776 203.193 764.807 192 751 192H665.786C666.578 195.034 667 198.218 667 201.5Z" fill="#1A6E47"/>
</mask>
<g mask="url(#mask1_488_86)">
<path d="M602 382C607.2 375.2 608.833 343.5 609 328.5L650 365.5L653 399C642.2 413.8 614.5 393.833 602 382Z" fill="#B87652"/>
<path d="M661.5 372.5C640.3 380.5 621.667 354.833 615 341L603.5 304.5C596.7 280.9 610 268 617.5 264.5C643.5 251.7 663 265.833 669.5 274.5L695.5 322.5L689.5 328.5C693 349 688 362.5 661.5 372.5Z" fill="#BE805E"/>
<path d="M677 277L638 295C645.6 333.4 675.833 334 690 329.5C695.2 363.1 666.833 373.5 652 374.5C627.2 375.3 607.667 339.167 601 321C607.5 333.667 616.6 351.1 601 319.5C585.4 287.9 595.5 271 602.5 266.5C634.1 239.7 665.333 262.333 677 277Z" fill="#754F40"/>
<path fill-rule="evenodd" clip-rule="evenodd" d="M620.491 335.546C617.759 333.213 615.497 329.628 614.334 325.316C613.081 320.671 613.356 316.113 614.808 312.605C611.981 310.191 608.651 309.116 605.515 309.962C599.348 311.625 596.266 320.085 598.632 328.858C600.998 337.631 607.915 343.394 614.082 341.731C616.983 340.949 619.202 338.662 620.491 335.546Z" fill="#B87652"/>
<ellipse cx="672.988" cy="306.948" rx="2" ry="3.5" transform="rotate(-18.0861 672.988 306.948)" fill="#08123D"/>
<path d="M661.5 301.5C662 299.167 664.4 294.5 670 294.5" stroke="#754F40" stroke-width="2" stroke-linecap="round"/>
<path d="M664 341C666.692 346.123 674.662 354.909 685 349.068" stroke="#F7C7B8" stroke-linecap="round"/>
<path d="M682.5 299L695.5 322.5L689.5 328.5" stroke="#08123D" stroke-linecap="round"/>
<path d="M602 381C552 393 533.167 454 530 483L529 494L583.5 498C622.3 548.8 654 525.833 665 508L700 485C700.4 449.4 668.167 411.5 652 397L602 381Z" fill="#F5FAFF"/>
<path d="M595.5 407C601.5 408.333 613.2 418.2 612 447C610.8 475.8 609.5 509.333 609 522.5" stroke="#0070CC"/>
</g>
<path fill-rule="evenodd" clip-rule="evenodd" d="M667.786 794C663.58 810.111 648.928 822 631.5 822C614.072 822 599.42 810.111 595.214 794L510 794C496.193 794 485 782.807 485 769L485 685.094C489.461 686.966 494.36 688 499.5 688C520.211 688 537 671.211 537 650.5C537 629.789 520.211 613 499.5 613C494.36 613 489.461 614.034 485 615.906L485 533C485 519.193 496.193 508 510 508L595.967 508C599.818 524.616 614.713 537 632.5 537C650.287 537 665.182 524.616 669.033 508L754 508C767.807 508 779 519.193 779 533L779 613.967C795.616 617.818 808 632.713 808 650.5C808 668.287 795.616 683.182 779 687.033L779 769C779 782.807 767.807 794 754 794L667.786 794Z" fill="#94CFD9"/>
<mask id="mask2_488_86" style="mask-type:alpha" maskUnits="userSpaceOnUse" x="485" y="508" width="323" height="314">
<path fill-rule="evenodd" clip-rule="evenodd" d="M667.786 794C663.58 810.111 648.928 822 631.5 822C614.072 822 599.42 810.111 595.214 794L510 794C496.193 794 485 782.807 485 769L485 685.094C489.461 686.966 494.36 688 499.5 688C520.211 688 537 671.211 537 650.5C537 629.789 520.211 613 499.5 613C494.36 613 489.461 614.034 485 615.906L485 533C485 519.193 496.193 508 510 508L595.967 508C599.818 524.616 614.713 537 632.5 537C650.287 537 665.182 524.616 669.033 508L754 508C767.807 508 779 519.193 779 533L779 613.967C795.616 617.818 808 632.713 808 650.5C808 668.287 795.616 683.182 779 687.033L779 769C779 782.807 767.807 794 754 794L667.786 794Z" fill="#94CFD9"/>
</mask>
<g mask="url(#mask2_488_86)">
<path d="M608 699.5C619.6 692.7 616.833 672.667 614 663.5L648.5 666C643.7 680.4 648.833 694.333 652 699.5L674 710.5C642 728.1 602.667 717.833 587 710.5L608 699.5Z" fill="#E09468"/>
<path d="M534.5 796C530.1 751.2 568 720 587.5 710C629.9 724.8 662.5 716.167 673.5 710C716.3 726.8 723.667 787 722 815L620 831.5L534.5 796Z" fill="#008FF5"/>
<path d="M673.5 641C679.299 641 684 634.956 684 627.5C684 620.044 679.299 614 673.5 614C667.701 614 663 620.044 663 627.5C663 634.956 667.701 641 673.5 641Z" fill="#E09368"/>
<path d="M604.5 564.5C573.3 578.5 580.166 611.667 587.5 626.5H672.5C686.9 603.7 679.5 587.667 674 582.5C664 557.7 646.5 559.5 628.5 559.5C610.5 559.5 609.167 562.667 604.5 564.5Z" fill="#FFE800"/>
<path d="M587.5 641C593.299 641 598 634.956 598 627.5C598 620.044 593.299 614 587.5 614C581.701 614 577 620.044 577 627.5C577 634.956 581.701 641 587.5 641Z" fill="#E09368"/>
<circle cx="587" cy="567" r="23" fill="#FFE800"/>
<path d="M674 622.251C674 646.688 654.074 675 629.5 675C604.926 675 585 646.727 585 622.251C585 610.515 589.688 599.26 598.034 590.961C606.379 582.662 617.698 578 629.5 578C641.302 578 652.621 582.662 660.966 590.961C669.312 599.26 674 610.515 674 622.251Z" fill="#E29C74"/>
<path fill-rule="evenodd" clip-rule="evenodd" d="M617.412 610.1C615.958 609.989 614.501 610.27 613.196 610.913C611.892 611.556 610.789 612.537 610.007 613.75C609.845 614.001 609.508 614.075 609.253 613.916C608.999 613.756 608.924 613.424 609.085 613.173C609.974 611.795 611.226 610.681 612.708 609.95C614.189 609.22 615.844 608.901 617.496 609.027C617.797 609.05 618.022 609.309 617.998 609.605C617.975 609.902 617.712 610.123 617.412 610.1Z" fill="#FDE533"/>
<path fill-rule="evenodd" clip-rule="evenodd" d="M641.448 609.027C642.916 608.901 644.387 609.22 645.704 609.95C647.021 610.681 648.134 611.795 648.924 613.173C649.068 613.424 649.001 613.756 648.775 613.916C648.549 614.075 648.249 614.001 648.105 613.75C647.409 612.537 646.43 611.556 645.27 610.913C644.111 610.27 642.815 609.989 641.523 610.1C641.256 610.123 641.022 609.902 641.001 609.605C640.981 609.309 641.181 609.05 641.448 609.027Z" fill="#FDE533"/>
<path fill-rule="evenodd" clip-rule="evenodd" d="M630.359 618.024C630.578 617.939 630.812 618.086 630.881 618.351L630.485 618.504C630.881 618.351 630.881 618.351 630.881 618.351L630.882 618.354L630.884 618.361L630.89 618.386C630.896 618.408 630.904 618.441 630.915 618.483C630.936 618.568 630.968 618.694 631.007 618.857C631.085 619.183 631.195 619.659 631.324 620.262C631.581 621.468 631.914 623.185 632.215 625.231C632.816 629.319 633.294 634.747 632.785 640.058C632.768 640.237 632.673 640.391 632.537 640.462C631.86 640.817 631.131 641 630.394 641C629.657 641 628.927 640.817 628.251 640.462C628.04 640.352 627.943 640.055 628.034 639.8C628.125 639.544 628.37 639.426 628.581 639.537C629.153 639.837 629.77 639.992 630.394 639.992C630.938 639.992 631.478 639.874 631.987 639.644C632.438 634.564 631.979 629.37 631.397 625.408C631.1 623.392 630.772 621.701 630.519 620.515C630.393 619.922 630.285 619.456 630.209 619.139C630.171 618.98 630.14 618.859 630.12 618.778C630.11 618.737 630.102 618.707 630.097 618.686L630.091 618.664L630.09 618.659L630.089 618.657" fill="#744F41"/>
<path d="M586.252 621C586.252 621 612.838 602.983 646.613 593.491C651.172 603.525 663.724 616.332 674.583 621C674.583 621 676.604 617.116 675.819 605.331C675.034 593.545 666.848 579.549 656.433 577.176C646.018 574.803 641.963 577.509 639.025 577.176C635.603 575.586 627.271 570.798 614.326 572.281C601.382 573.765 591.098 591.732 589.795 595.96C588.493 600.187 585.045 612.326 586.252 621Z" fill="#FDE533"/>
<ellipse cx="642.5" cy="624" rx="2.5" ry="3" fill="#1890F1"/>
<ellipse cx="619.5" cy="624" rx="2.5" ry="3" fill="#1890F1"/>
<path d="M614 644C620.333 649.5 636 657.2 648 644" stroke="#754F40"/>
</g>
<path fill-rule="evenodd" clip-rule="evenodd" d="M1302.79 794C1298.58 810.111 1283.93 822 1266.5 822C1249.07 822 1234.42 810.111 1230.21 794L1145 794C1131.19 794 1120 782.807 1120 769L1120 685.094C1124.46 686.966 1129.36 688 1134.5 688C1155.21 688 1172 671.211 1172 650.5C1172 629.789 1155.21 613 1134.5 613C1129.36 613 1124.46 614.034 1120 615.906L1120 533C1120 519.193 1131.19 508 1145 508L1230.97 508C1234.82 524.616 1249.71 537 1267.5 537C1285.29 537 1300.18 524.616 1304.03 508L1389 508C1402.81 508 1414 519.193 1414 533L1414 613.967C1430.62 617.818 1443 632.713 1443 650.5C1443 668.287 1430.62 683.182 1414 687.033L1414 769C1414 782.807 1402.81 794 1389 794L1302.79 794Z" fill="#FF9908"/>
<mask id="mask3_488_86" style="mask-type:alpha" maskUnits="userSpaceOnUse" x="1120" y="508" width="323" height="314">
<path fill-rule="evenodd" clip-rule="evenodd" d="M1302.79 794C1298.58 810.111 1283.93 822 1266.5 822C1249.07 822 1234.42 810.111 1230.21 794L1145 794C1131.19 794 1120 782.807 1120 769L1120 685.094C1124.46 686.966 1129.36 688 1134.5 688C1155.21 688 1172 671.211 1172 650.5C1172 629.789 1155.21 613 1134.5 613C1129.36 613 1124.46 614.034 1120 615.906L1120 533C1120 519.193 1131.19 508 1145 508L1230.97 508C1234.82 524.616 1249.71 537 1267.5 537C1285.29 537 1300.18 524.616 1304.03 508L1389 508C1402.81 508 1414 519.193 1414 533L1414 613.967C1430.62 617.818 1443 632.713 1443 650.5C1443 668.287 1430.62 683.182 1414 687.033L1414 769C1414 782.807 1402.81 794 1389 794L1302.79 794Z" fill="#FF9908"/>
</mask>
<g mask="url(#mask3_488_86)">
<path d="M1185 769.5C1183 757.9 1215.83 723.333 1232.5 707.5L1264.5 689.5L1273.5 691.5C1316.7 694.7 1322.17 791.333 1320 825.5L1199 821C1195.33 816.333 1187 781.1 1185 769.5Z" fill="#8FD1B3"/>
<path d="M1262.5 722.5C1250.5 733.5 1252 780 1255.5 831.5" stroke="#1A6E47" stroke-width="2" stroke-linecap="round"/>
<path d="M1231 709C1237.8 701 1231.5 682.333 1227.5 674L1256.5 662.5L1266.5 694.5L1231 709Z" fill="#F5B8A9"/>
<path d="M1199.5 626.5C1197.9 607.7 1205.5 594.667 1209.5 590.5L1243 588C1277.8 598.4 1268.5 643.333 1259.5 664.5C1222.7 700.5 1204.17 668.5 1199.5 648L1191 644L1199.5 626.5Z" fill="#F7C7B8"/>
<path d="M1259 628.5C1216.2 625.7 1206.83 600 1207.5 587.5C1224.7 564.3 1256.67 569.5 1270.5 575C1300.5 594 1296.5 607 1298.5 631C1300.5 655 1336 664 1348.5 671.5C1361 679 1350.5 690.5 1351.5 706.5C1352.5 722.5 1369 700.5 1374 741.5C1379 782.5 1324.5 774.5 1326 760C1327.2 748.4 1319.83 742.833 1316 741.5C1289.2 747.1 1286.5 735.5 1288.5 729C1286.5 709 1275.67 705.667 1270.5 706.5C1245.3 710.9 1252.33 675 1259 656.5C1270.2 640.1 1263.67 631 1259 628.5Z" fill="#08123D" stroke="black"/>
<path fill-rule="evenodd" clip-rule="evenodd" d="M1250.78 648.713C1252.94 646.874 1254.72 644.048 1255.64 640.649C1256.63 636.987 1256.41 633.394 1255.26 630.63C1257.49 628.727 1260.12 627.88 1262.59 628.547C1267.45 629.857 1269.88 636.526 1268.01 643.441C1266.15 650.356 1260.7 654.899 1255.84 653.588C1253.55 652.971 1251.8 651.169 1250.78 648.713Z" fill="#F5B8A9"/>
<ellipse cx="1211" cy="630.5" rx="2" ry="3.5" fill="#08123D"/>
<path d="M1203.5 660.5C1209 660.667 1220.3 658 1221.5 646" stroke="black" stroke-linecap="round"/>
<path d="M1199.5 647.5L1191 643.5L1199.5 626.5" stroke="black" stroke-linecap="round"/>
<path d="M1209.5 617C1212.17 615.5 1218.1 614.5 1220.5 622.5" stroke="black" stroke-width="2" stroke-linecap="round"/>
</g>
<path d="M948.951 610.221C943.454 606.312 942.8 602.736 942.348 595.807C927.849 597.332 917.063 589.092 913.544 585.074L915.29 601.67C916.035 608.754 885.226 622.271 878.708 634.226C881.438 640.053 902.413 672.56 913.538 676.029C962.512 691.296 970.762 662.8 975.008 647.06C976.015 643.329 976.796 640.315 977.842 638.77C975.727 637.268 980.268 630.266 972.879 623.877C965.489 617.489 952.195 612.528 948.951 610.221Z" fill="#763A40"/>
<path d="M980.949 598.07C972.364 616.313 959.694 616.248 954.431 613.936L950.243 619.402L976.307 658.021C973.175 645.971 1017.86 619.111 1025.42 573.42L1010.55 487.548C1011.18 478.748 1010.91 459.038 1004.71 450.601C998.506 442.165 993.935 455.569 992.424 463.325C992.879 474.208 990.976 476.541 989.968 476.347C984.601 470.553 981.719 471.702 980.949 473C981.713 480.023 986.944 486.801 990.864 489.336L992.424 568L980.949 598.07Z" fill="#763A40"/>
<path d="M978.459 635.922C982.151 643.34 988.8 661.902 985.864 676.798" stroke="#1A6E47" stroke-width="2" stroke-linecap="round"/>
<ellipse cx="933.39" cy="559.92" rx="31.5437" ry="42.0076" transform="rotate(-23.7641 933.39 559.92)" fill="#82464C"/>
<path d="M956.893 564.269C955.643 563.126 950.675 557.079 948.347 554.198L954.089 567.563C956.239 566.839 956.854 565.065 956.893 564.269Z" fill="#82464C"/>
<path d="M948.347 554.198C950.675 557.079 955.643 563.126 956.893 564.269C956.854 565.065 956.239 566.839 954.089 567.563" stroke="#07133D" stroke-width="1.00211" stroke-linecap="round"/>
<path d="M903.67 511.282C914.963 504.808 926.258 507.478 930.494 509.623L930.691 512.806L919.515 526.339L891.433 531.569C891.268 528.916 889.554 519.376 903.67 511.282Z" fill="#90CFB2"/>
<path d="M937.988 509.28C929.746 505.387 923.828 515.719 922.415 519.653L939.993 526.377L957.296 536.313C956.116 531.593 948.29 514.146 937.988 509.28Z" fill="#FDE533"/>
<path d="M955.434 532.636C954.259 530.644 952.21 528.034 949.692 526.296C929.068 512.058 901.184 515.685 889.268 532.946C877.351 550.207 888.659 572.397 898.067 579.509C907.475 586.62 911.465 587.403 915.514 588.904C915.109 582.36 917.28 577.486 915.597 570.712L918.252 559.5C920.33 557.037 922.078 554.666 923.559 552.394C932.472 538.721 947.164 528.262 958.101 540.377C958.204 537.062 956.608 534.629 955.434 532.636Z" fill="#1F6D48"/>
<ellipse cx="941.145" cy="560.613" rx="1.40014" ry="1.71292" transform="rotate(-18.3326 941.145 560.613)" fill="#07133D"/>
<ellipse rx="1.39157" ry="1.71219" transform="matrix(0.948734 -0.316075 0.312998 0.949754 956.755 553.235)" fill="#07133D"/>
<path d="M935.807 551.175C934.99 551.988 933.451 554.402 933.832 557.557" stroke="#07133D" stroke-width="1.00211" stroke-linecap="round"/>
<path d="M952.29 543.739C952.975 543.676 953.916 543.805 954.777 545.373" stroke="#07133D" stroke-width="1.00211" stroke-linecap="round"/>
<path d="M939.998 571.51C941.753 575.976 945.623 580.175 954.309 577.574" stroke="#FC6483" stroke-width="1.00211" stroke-linecap="round"/>
<path fill-rule="evenodd" clip-rule="evenodd" d="M920.127 560.141C919.154 561.571 918.616 563.49 918.744 565.564C918.873 567.638 919.642 569.476 920.784 570.774C919.802 572.217 918.374 573.161 916.739 573.262C913.483 573.464 910.635 570.249 910.377 566.081C910.119 561.913 912.549 558.372 915.805 558.17C917.441 558.069 918.974 558.83 920.127 560.141Z" fill="#763A40"/>
<ellipse cx="916.708" cy="580.921" rx="4.46322" ry="10.1166" transform="rotate(-3.54104 916.708 580.921)" fill="#FC9729"/>
<path d="M977.56 942.951L981.523 910.368C988.013 908.982 1003.84 908.202 1004.56 913.635C1005.46 920.427 1011.2 930.56 1027.47 937.237C1040.5 942.579 1043.33 953.631 1043.12 958.489L977.56 942.951Z" fill="#008FF5"/>
<path d="M935.113 942.951L931.15 910.368C924.66 908.982 908.831 908.202 908.114 913.635C907.217 920.427 901.474 930.56 885.198 937.237C872.178 942.579 869.346 953.631 869.558 958.489L935.113 942.951Z" fill="#008FF5"/>
<path d="M847.655 607.322C867.741 648.081 893.195 660.398 903.412 661.462L897.473 613.874L887.5 607.322L865 568L863.088 492.913L866.321 474.832C866.902 468.873 861.096 474.28 858 478L853.867 473.194C853.111 457.889 848.402 455.043 846.142 455.533C835.14 467.813 842.872 488.426 848.114 497.197C839.592 516.922 827.569 566.562 847.655 607.322Z" fill="#763A40"/>
<path d="M949.5 609.5C937.1 622.3 917.333 614.833 909 609.5C890.2 618.3 884.5 602.5 884 593.5L851 617.5C863.4 647.5 887.833 659.667 898.5 662L914 725L993 725L985.5 683C989.9 667.8 985.667 651.667 983 645.5C998.442 638.101 1010.57 625.207 1017.01 609.34L1021 599.5L985.5 586.5C975.9 611.3 957.5 612.167 949.5 609.5Z" fill="#FF9908"/>
<path d="M906 919L915 722.5L992 722.5C996.8 732.9 1004 857.833 1007 919L977 922L958 771L937.5 922L906 919Z" fill="#1A6E47"/>
<path fill-rule="evenodd" clip-rule="evenodd" d="M907.214 192C911.42 175.889 926.072 164 943.5 164C960.928 164 975.58 175.889 979.786 192H1065C1078.81 192 1090 203.193 1090 217V300.906C1103.51 306.576 1113 319.93 1113 335.5C1113 351.07 1103.51 364.424 1090 370.094V453C1090 466.807 1078.81 478 1065 478H979.033C975.182 461.384 960.287 449 942.5 449C924.713 449 909.818 461.384 905.967 478H821C807.193 478 796 466.807 796 453V372.033C779.384 368.182 767 353.287 767 335.5C767 317.713 779.384 302.818 796 298.967V217C796 203.193 807.193 192 821 192H907.214Z" fill="#08123D"/>
<mask id="mask4_488_86" style="mask-type:alpha" maskUnits="userSpaceOnUse" x="767" y="164" width="346" height="314">
<path fill-rule="evenodd" clip-rule="evenodd" d="M907.214 192C911.42 175.889 926.072 164 943.5 164C960.928 164 975.58 175.889 979.786 192H1065C1078.81 192 1090 203.193 1090 217V300.906C1103.51 306.576 1113 319.93 1113 335.5C1113 351.07 1103.51 364.424 1090 370.094V453C1090 466.807 1078.81 478 1065 478H979.033C975.182 461.384 960.287 449 942.5 449C924.713 449 909.818 461.384 905.967 478H821C807.193 478 796 466.807 796 453V372.033C779.384 368.182 767 353.287 767 335.5C767 317.713 779.384 302.818 796 298.967V217C796 203.193 807.193 192 821 192H907.214Z" fill="#08123D"/>
</mask>
<g mask="url(#mask4_488_86)">
<path d="M924.681 362.653C925.842 376.803 920.326 386.742 917.423 389.943H967.258C958.742 386.709 958.549 370.402 959.516 362.653H924.681Z" fill="#C98159"/>
<path fill-rule="evenodd" clip-rule="evenodd" d="M905.528 348.571C907.434 343.379 905.177 337.774 900.487 336.052C895.797 334.33 890.45 337.143 888.544 342.335C886.638 347.527 888.895 353.132 893.585 354.854C894.655 355.246 895.759 355.403 896.849 355.35C896.716 355.634 896.594 355.928 896.483 356.229C894.577 361.421 896.834 367.026 901.524 368.747C906.214 370.469 911.562 367.656 913.468 362.464C915.374 357.273 913.117 351.668 908.427 349.946C907.357 349.553 906.252 349.396 905.162 349.45C905.295 349.165 905.418 348.872 905.528 348.571ZM991.79 341.014C996.48 342.736 998.737 348.341 996.831 353.533C995.334 357.611 991.713 360.221 987.956 360.319C987.937 360.373 987.918 360.426 987.898 360.48C986.309 364.808 982.329 367.482 978.332 367.255C978.235 367.644 978.117 368.033 977.975 368.419C976.069 373.611 970.722 376.424 966.031 374.702C961.341 372.98 959.084 367.375 960.99 362.184C962.579 357.856 966.559 355.181 970.557 355.408C970.653 355.019 970.772 354.63 970.913 354.244C972.411 350.166 976.031 347.556 979.788 347.458C979.807 347.404 979.826 347.351 979.846 347.297C981.752 342.105 987.099 339.292 991.79 341.014Z" fill="#754F40"/>
<ellipse cx="942.341" cy="320.531" rx="46.2746" ry="55.1736" fill="#CC8B65"/>
<path fill-rule="evenodd" clip-rule="evenodd" d="M973.072 243.691C979.725 246.842 984.269 252.529 985.888 258.769C986.576 259.244 987.226 259.765 987.837 260.326C991.542 260.199 995.402 260.953 999.072 262.691C1007.36 266.618 1012.38 274.481 1012.54 282.446C1012.72 282.526 1012.89 282.607 1013.07 282.691C1024.37 288.043 1029.59 300.705 1024.72 310.973C1024.13 312.228 1023.41 313.388 1022.59 314.45C1030.67 320.664 1033.88 331.194 1029.72 339.973C1026.29 347.222 1018.75 351.339 1010.64 351.251C1013.05 356.551 1013.27 362.591 1010.72 367.973C1005.86 378.241 992.757 382.226 981.458 376.874C970.16 371.522 964.943 358.86 969.807 348.592C971.979 344.006 975.794 340.674 980.358 338.866C978.783 335.019 978.62 330.421 980.243 325.999C981.574 322.374 983.897 319.435 986.725 317.439C980.676 314.033 977.748 306.415 979.699 298.954C979.097 298.609 978.515 298.242 977.955 297.855C974.37 298.814 970.563 298.735 966.938 297.404C962.261 295.687 958.701 292.186 956.625 287.811C952.052 295.109 945.464 299.122 940.165 297.177C936.259 295.743 933.914 291.386 933.446 285.781C933.007 286.967 932.508 288.154 931.948 289.335C925.365 303.233 912.859 311.103 904.014 306.913C903.271 306.561 902.576 306.135 901.933 305.641C901.639 306.771 901.237 307.886 900.722 308.973C900.018 310.459 899.142 311.812 898.124 313.026C902.715 319.136 903.983 327.092 900.723 333.973C900.159 335.164 899.484 336.271 898.714 337.288C905.204 343.605 907.496 353.009 903.723 360.973C898.859 371.241 885.757 375.226 874.458 369.874C863.16 364.522 857.943 351.86 862.807 341.592C863.371 340.401 864.046 339.294 864.816 338.277C858.326 331.96 856.034 322.556 859.807 314.592C860.51 313.106 861.386 311.753 862.404 310.539C857.813 304.429 856.546 296.473 859.805 289.592C862.993 282.862 869.719 278.831 877.158 278.359C876.673 274.745 877.171 271.034 878.801 267.592C883.665 257.324 896.767 253.339 908.066 258.691C909.012 259.139 909.916 259.638 910.774 260.183L910.819 260.149C910.238 257.777 910.295 255.447 911.092 253.279C914.489 244.025 930.04 241.222 945.826 247.018C946.314 247.197 946.797 247.382 947.273 247.573C953.44 241.172 963.856 239.325 973.072 243.691Z" fill="#754F40"/>
<ellipse cx="954.826" cy="326.578" rx="3.65747" ry="3.39622" transform="rotate(2.91726 954.826 326.578)" fill="#08123D"/>
<circle cx="926.565" cy="326.565" r="3.39622" transform="rotate(2.91726 926.565 326.565)" fill="#08123D"/>
<path d="M938.847 323.091C936.594 327.665 935.232 338.533 937.995 343.753C939.637 343.25 941.345 343.099 942.412 341.982" stroke="#744F41" stroke-linecap="round" stroke-linejoin="round"/>
<path d="M936 355.176C938.953 355.414 946.117 354.803 951.151 350.455C956.186 346.108 959.005 341.787 959.785 340.17" stroke="#744F41" stroke-linecap="round"/>
<path d="M856.5 453.5C860.5 413.1 897.833 395 916 391L932.5 385.5H962.5C968.9 395.9 987.833 401.833 996.5 403.5C1026.5 413.5 1031 464.667 1029.5 489H854L856.5 453.5Z" fill="#CC8B65"/>
<path d="M891 453.5L887.5 404C899.5 393.2 906.833 393.167 909 394.5C939.8 424.1 966.833 408.167 976.5 396.5L992 403L995.5 459C999.9 470.2 999.667 486.333 999 493L891 494.5C885.4 489.3 888.667 465 891 453.5Z" fill="#FF9908"/>
<path d="M955.319 312C956.427 312.256 958.964 313.083 960.245 314.344C961.526 315.605 962.5 317.747 962.828 318.661" stroke="#754F40" stroke-linecap="round"/>
<path d="M928.188 311.767C927.023 311.702 924.292 311.777 922.692 312.597C921.091 313.417 919.564 315.139 919 315.897" stroke="#754F40" stroke-linecap="round"/>
<path fill-rule="evenodd" clip-rule="evenodd" d="M920.983 389.35C920.983 391.643 919.124 393.503 916.83 393.503C914.537 393.503 912.677 391.643 912.677 389.35C912.677 387.056 914.537 385.197 916.83 385.197C919.124 385.197 920.983 387.056 920.983 389.35ZM929.08 391.84C928.533 393.495 926.974 394.689 925.136 394.689C922.842 394.689 920.983 392.83 920.983 390.536C920.983 388.243 922.842 386.383 925.136 386.383C927.234 386.383 928.968 387.939 929.249 389.959C929.673 388.678 930.712 387.629 932.112 387.252C934.327 386.655 936.606 387.967 937.202 390.181C937.799 392.396 936.488 394.675 934.273 395.271C932.059 395.868 929.78 394.557 929.183 392.342C929.138 392.175 929.104 392.007 929.08 391.84ZM945.508 390.393C946.105 392.608 944.793 394.887 942.579 395.484C940.364 396.08 938.085 394.769 937.488 392.554C936.892 390.34 938.203 388.061 940.418 387.464C942.632 386.867 944.911 388.179 945.508 390.393Z" fill="#FFE800"/>
<path fill-rule="evenodd" clip-rule="evenodd" d="M952.624 390.537C953.086 392.783 951.639 394.979 949.393 395.441C947.146 395.903 944.95 394.456 944.488 392.21C944.026 389.963 945.473 387.767 947.72 387.305C949.966 386.843 952.162 388.29 952.624 390.537ZM961.082 390.719C961.153 392.708 959.782 394.516 957.767 394.93C955.521 395.392 953.325 393.945 952.863 391.699C952.401 389.452 953.848 387.257 956.094 386.795C957.793 386.445 959.463 387.187 960.376 388.542C960.323 386.973 961.167 385.442 962.661 384.69C964.71 383.659 967.207 384.485 968.237 386.534C969.268 388.583 968.442 391.079 966.393 392.11C964.503 393.061 962.231 392.431 961.082 390.719Z" fill="#FFE800"/>
</g>
<path d="M863.5 469.5C861 471.5 860 477 856 479.625L860.086 486L865 482.5C867.5 470 865.096 468.224 863.5 469.5Z" fill="#763A40"/>
<path d="M378 210.5C382.8 206.5 383 191.167 382.5 184H406.5L412 210.5H378Z" fill="#E7AE9D"/>
<path d="M405.5 193.5C383.1 199.5 372.167 184 369.5 175.5C359.1 148.7 372.833 137.667 381 135.5C399 120.7 415.167 134.333 421 143C430.6 173.8 414.667 189.5 405.5 193.5Z" fill="#F7C7B8"/>
<path d="M376 166L372 162L368 166L374.5 183.5C362.1 179.9 357 167.667 356 162C343.2 126.8 370 121 385 122.5L388 119.5C418.4 114.7 423.333 133.167 422 143L399 131C399 137 384.667 146.167 377.5 150L376 166Z" fill="#FF9908"/>
<path fill-rule="evenodd" clip-rule="evenodd" d="M374.376 161.205C372.377 162.271 371 164.516 371 167.114C371 169.925 372.614 172.324 374.882 173.261C373.421 174.945 371.326 176 369 176C364.582 176 361 172.194 361 167.5C361 162.806 364.582 159 369 159C371.07 159 372.956 159.835 374.376 161.205Z" fill="#E7AE9D"/>
<path d="M461 268.5L446 277.5L447.5 286.5C495 276.5 492 268.5 491 265C490.2 262.2 474.334 267.833 466.5 271C466.834 270.167 467.8 267.3 469 262.5C470.2 257.7 464.167 264.5 461 268.5Z" fill="#F7C7B8"/>
<path d="M542 211C536.4 209.4 532.333 198 531 192.5H521.5C536.5 178 557.5 184 558 192.5C558.269 197.074 556.592 202.358 554.857 206.341C553.488 209.483 550.826 211.97 547.4 211.877C545.878 211.836 544.066 211.59 542 211Z" fill="#F7C7B8"/>
<path d="M341.5 235.5C348.7 205.9 372.166 205.833 383 209.5H412C428.8 207.5 451.667 226 461 235.5L482.5 219.5V249.5L470.563 256.44C464.612 259.9 457.301 260.056 451.208 256.855L431.5 246.5L436 274L447.5 272.5L450.5 288.5L436 296.5L439.5 330L360.5 334L359 320C330 318 332.5 272.5 341.5 235.5Z" fill="#0070CC"/>
<path d="M369.5 252L365 289C377.5 284.333 411.4 274.6 447 273" stroke="#008FF5"/>
<path d="M394.5 169.5C396 173.333 401.8 180.2 413 177" stroke="#754F40" stroke-linecap="round"/>
<path d="M408.5 152.5L415 165L411.5 168.5" stroke="black" stroke-linecap="round"/>
<path d="M392.5 153C392.833 151.167 394.6 147.7 399 148.5" stroke="#FF9908" stroke-width="2" stroke-linecap="round"/>
<path d="M411 145.024C412.604 144.076 416.381 143.14 418.658 146.989" stroke="#FF9908" stroke-width="2" stroke-linecap="round"/>
<ellipse cx="400.5" cy="158" rx="1.5" ry="2" fill="#8FD1B3"/>
<ellipse cx="415.5" cy="155" rx="1.5" ry="2" fill="#8FD1B3"/>
<path d="M440.513 526.817L436.411 500.031C441.262 497.484 453.672 493.34 455.452 497.5C457.676 502.7 464.499 509.478 478.924 511.163C490.464 512.512 495.176 520.667 496.089 524.577L440.513 526.817Z" fill="#08123D"/>
<path d="M310.379 503.56L322.605 480.891C327.804 481.79 339.745 485.887 338.727 490.074C337.73 494.17 338.349 500.64 343.529 507.903C344.967 509.918 344.26 509.112 352.804 510.028C361.348 510.943 364.415 522.403 362.873 525.895C362.873 525.895 344.871 525.905 336.632 523.159C328.394 520.413 310.379 503.56 310.379 503.56Z" fill="#08123D"/>
<path d="M365 416L361.5 332.5L435 328.5L477 510H435L403.5 366.5V433.5L346.5 510L310 499L365 416Z" fill="#8FD1B3"/>
<path d="M1603.52 210.57C1602.03 209.826 1602.59 210.57 1603.52 207.782L1628.61 189.194C1628.15 199.417 1639.77 215.217 1640.7 217.076C1641.63 218.934 1636.51 227.764 1626.29 231.481C1616.07 235.199 1605.84 227.299 1606.31 224.975C1606.77 222.652 1605.38 211.499 1603.52 210.57Z" fill="#753B41"/>
<ellipse cx="1600.77" cy="177.831" rx="30.205" ry="36.4718" transform="rotate(-28.3109 1600.77 177.831)" fill="#82464C"/>
<path d="M1590.84 156.993C1597.12 155.255 1602.55 153.754 1606.77 151.554L1617 163.636L1627.69 165.495L1632.8 186.406C1637.26 165.216 1629.7 146.288 1625.36 139.472C1616.81 122 1603.52 127.855 1597.94 132.966L1585.86 126.925C1567.28 122.278 1555.66 136.219 1556.59 144.584C1557.33 151.275 1552.87 154.807 1550.55 155.736C1543.85 174.696 1560.46 177.887 1569.6 177.112C1573.13 167.399 1580.82 159.765 1590.78 157.01L1590.84 156.993Z" fill="#08123D"/>
<path fill-rule="evenodd" clip-rule="evenodd" d="M1625.59 177.325C1625.88 174.977 1625.33 172.378 1623.88 170.062C1622.33 167.568 1620.03 165.903 1617.64 165.267C1617.93 162.838 1619.12 160.679 1621.11 159.381C1625.03 156.831 1630.6 158.582 1633.54 163.293C1636.48 168.005 1635.69 173.891 1631.77 176.442C1629.93 177.642 1627.72 177.89 1625.59 177.325Z" fill="#753B41"/>
<ellipse cx="1595.08" cy="177.885" rx="2.09506" ry="1.94254" transform="rotate(-24.2322 1595.08 177.885)" fill="#09133C"/>
<ellipse cx="1578.11" cy="186.142" rx="1.83317" ry="1.94254" transform="rotate(-24.2322 1578.11 186.142)" fill="#09133C"/>
<path d="M1586.29 178.543C1586.18 178.216 1585.83 178.034 1585.5 178.137C1585.18 178.241 1585 178.59 1585.1 178.918L1586.29 178.543ZM1590.39 193.606L1589.79 193.793C1589.9 194.117 1590.24 194.299 1590.57 194.201L1590.39 193.606ZM1594.87 190.599C1594.89 190.256 1594.62 189.966 1594.28 189.95C1593.94 189.935 1593.65 190.201 1593.63 190.544L1594.87 190.599ZM1585.1 178.918L1589.79 193.793L1590.98 193.418L1586.29 178.543L1585.1 178.918ZM1590.57 194.201C1591.3 193.982 1592.31 193.61 1593.16 193.062C1593.98 192.531 1594.82 191.726 1594.87 190.599L1593.63 190.544C1593.61 191.042 1593.22 191.543 1592.49 192.016C1591.78 192.474 1590.89 192.806 1590.21 193.01L1590.57 194.201Z" fill="#09133C"/>
<path d="M1606.14 186.352C1606.4 193.428 1600.59 198.351 1592.26 198.79" stroke="#08123D" stroke-width="1.24397" stroke-linecap="round"/>
<path d="M1606.15 172.511C1607.94 176.824 1606.03 181.744 1601.97 183.538C1597.91 185.332 1593.14 183.365 1591.34 179.052C1589.54 174.74 1591.45 169.82 1595.51 168.026C1599.57 166.232 1604.35 168.199 1606.15 172.511Z" stroke="#FF9908" stroke-width="2"/>
<path d="M1583.44 179.987C1583.27 180.511 1583.55 181.077 1584.07 181.252C1584.6 181.427 1585.16 181.143 1585.34 180.62L1583.44 179.987ZM1583.55 179.655L1583.44 179.987L1585.34 180.62L1585.45 180.287L1583.55 179.655ZM1591.39 175.611C1588.11 174.612 1584.64 176.406 1583.55 179.655L1585.45 180.287C1586.19 178.067 1588.57 176.841 1590.81 177.524L1591.39 175.611Z" fill="#FF9908"/>
<path d="M1585.61 183.401C1586.96 187.711 1584.92 191.968 1581.39 193.087C1577.85 194.206 1573.76 191.887 1572.42 187.577C1571.07 183.266 1573.1 179.01 1576.64 177.891C1580.17 176.772 1584.26 179.09 1585.61 183.401Z" stroke="#FF9908" stroke-width="2"/>
<path d="M1605.38 170.606L1619.32 159.454" stroke="#FF9908" stroke-width="2"/>
<path d="M1507 381C1507 366.2 1563.66 340.833 1592 330L1674 356.5C1674 389.5 1658.5 388 1625 393L1589 413C1611 419 1629.83 459.5 1636.5 479L1618.5 490.5C1596.33 467.667 1551.6 419.8 1550 411C1548.4 402.2 1577 378.833 1593.5 366.5L1531.5 397C1545.5 400.6 1537.33 449.833 1531.5 474H1514C1511.66 449.167 1507 395.8 1507 381Z" fill="#08123D"/>
<path d="M1715.5 246.5C1713.9 244.9 1711.16 259.833 1710 267.5L1715.5 274C1739.5 255.2 1741.5 244.167 1739.5 241L1717.5 254.5C1717.5 252.5 1717.1 248.1 1715.5 246.5Z" fill="#82464C"/>
<path d="M1750.5 187.5C1748.1 185.1 1741.5 177.167 1738.5 173.5C1749.3 162.3 1758.33 168.833 1761.5 173.5C1762.16 174.667 1763.5 178.4 1763.5 184C1763.5 191 1753.5 190.5 1750.5 187.5Z" fill="#82464C"/>
<path d="M1576 258C1572 231.6 1595.33 223.333 1607.5 222.5C1623.5 234.1 1636.83 222.667 1641.5 215.5C1651 212 1650 215.5 1666 215.5C1678.8 215.5 1696.66 210.5 1704 208V255.5C1686.4 261.5 1683.33 271 1684 275L1709 265L1719.5 276.5C1711.1 294.9 1685.66 306.167 1674 309.5L1675 312C1679 346.8 1674.33 358.5 1671.5 360C1643.5 364 1606.5 341.667 1591.5 330L1589.5 292C1579.1 279.2 1576.16 264 1576 258Z" fill="#008FF5"/>
<path d="M1537.11 500.951L1533.15 468.368C1526.66 466.982 1510.83 466.202 1510.11 471.635C1509.22 478.427 1503.47 488.56 1487.2 495.237C1474.18 500.579 1471.35 511.631 1471.56 516.489L1537.11 500.951Z" fill="#008FF5"/>
<path d="M1650.64 501.891L1635.56 472.733C1629 473.697 1613.89 478.482 1615.11 483.825C1616.64 490.503 1614.79 502.003 1601.86 513.935C1591.52 523.48 1592.72 534.826 1594.61 539.305L1650.64 501.891Z" fill="#008FF5"/>
<path d="M982.5 478.5C979 470 980.5 464.5 980.5 464C983.5 454 988.246 471.21 992 475.5C995.5 479.5 997.333 485 997.5 487L982.5 478.5Z" fill="#763A40"/>
</g>
<defs>
<clipPath id="clip0_488_86">
<rect width="2000" height="1000" fill="white"/>
</clipPath>
</defs>
</svg>
